<?xml version="1.0" encoding="UTF-8"?>
<svg version="1.1" xmlns="http://www.w3.org/2000/svg" width="512" height="512">
<path d="M0 0 C0.90943359 0.20367188 1.81886719 0.40734375 2.75585938 0.6171875 C56.12481732 12.85465556 104.60693383 46.57597145 134.109375 92.80078125 C146.62816495 112.93085319 163.4178052 141.48703135 163 166 C164.06528931 165.97643433 164.06528931 165.97643433 165.15209961 165.95239258 C168.4138166 165.8894886 171.67540537 165.85083463 174.9375 165.8125 C176.05447266 165.78736328 177.17144531 165.76222656 178.32226562 165.73632812 C188.37755021 165.64786521 195.82072553 167.02391922 203.2734375 174.03125 C207.7930528 179.18483848 210.0948559 185.30052761 210.16113281 192.12817383 C210.17058929 192.93537872 210.18004578 193.74258362 210.18978882 194.57424927 C210.19418976 195.44306732 210.1985907 196.31188538 210.203125 197.20703125 C210.21018463 198.11597137 210.21724426 199.0249115 210.22451782 199.96139526 C210.4542542 238.30288627 210.4542542 238.30288627 207 255 C206.80132324 255.97775391 206.60264648 256.95550781 206.39794922 257.96289062 C199.08751802 292.89963297 185.91183624 326.87429622 165 356 C164.30519531 356.96808594 163.61039062 357.93617188 162.89453125 358.93359375 C152.30184755 373.35089245 140.43425332 388.16640477 126.62109375 399.6328125 C124.98755544 401.01049541 123.48986173 402.46938217 122 404 C123.13695312 404.13535156 124.27390625 404.27070313 125.4453125 404.41015625 C151.10303164 407.83230199 164.74784944 423.50766794 182.47900391 441.12890625 C184.41356171 443.05005461 186.35516992 444.96363221 188.30322266 446.87109375 C191.14092667 449.64974722 193.95777554 452.44900507 196.7734375 455.25 C198.07346207 456.51602051 198.07346207 456.51602051 199.39974976 457.80761719 C206.40666771 464.83924151 210.57345198 471.26310858 210.5625 481.4375 C210.32740103 489.25845899 208.60603628 494.97425879 203.35546875 500.8359375 C196.3535073 507.31630814 189.57506338 508.44646695 180.34228516 508.40405273 C178.76772804 508.41434761 178.76772804 508.41434761 177.16136169 508.42485046 C173.70378962 508.44309764 170.24667224 508.43928345 166.7890625 508.43359375 C164.37681939 508.43815682 161.96457758 508.44346276 159.55233765 508.44947815 C154.50033279 508.45840541 149.44848603 508.4559907 144.39648438 508.44604492 C137.9347843 508.43456116 131.47363118 508.45476031 125.01200294 508.48396206 C120.03102167 508.50234348 115.05017097 508.50202757 110.06916428 508.49632454 C107.68742481 508.49617154 105.30567637 508.50219843 102.92396927 508.51461601 C99.58780263 508.52955872 96.25263998 508.51882343 92.91650391 508.50170898 C91.9406282 508.51137695 90.9647525 508.52104492 89.95930481 508.53100586 C82.63115623 508.452622 76.76354135 506.77594135 70.81706142 502.38989162 C66.79475268 500.40535086 63.22559985 500.57837837 58.79679871 500.60559082 C57.86712117 500.59949972 56.93744363 500.59340861 55.97959405 500.58713293 C52.86281826 500.57047731 49.74644987 500.57528248 46.62963867 500.58007812 C44.39560013 500.57273923 42.16156538 500.56415353 39.92753601 500.55441284 C33.85720711 500.53216767 27.78701384 500.52926773 21.71664977 500.53116035 C16.64955636 500.53127993 11.58249182 500.52272082 6.51540643 500.51438284 C-6.12347884 500.49403665 -18.7622798 500.4930026 -31.4011692 500.50018996 C-42.36923832 500.50576321 -53.3370737 500.48494879 -64.3050882 500.45182949 C-75.57378428 500.41806711 -86.84237169 500.40340171 -98.11112994 500.40754652 C-104.43495004 500.40961483 -110.75853745 500.40412198 -117.08231544 500.37965393 C-123.03073047 500.3573994 -128.97865914 500.35925444 -134.92707634 500.37958145 C-137.10873924 500.38299389 -139.29043479 500.37789243 -141.47205353 500.36359787 C-144.45388502 500.34541032 -147.43406584 500.35815162 -150.41584778 500.37854004 C-151.27627066 500.36602219 -152.13669354 500.35350434 -153.02318984 500.34060717 C-158.49259206 500.4206114 -161.84426565 501.6237561 -166.30940574 504.80179447 C-171.82242374 508.70913571 -178.0677727 508.30202339 -184.52832031 508.30639648 C-185.57627274 508.31472 -186.62422516 508.32304352 -187.70393372 508.33161926 C-191.1620355 508.35567788 -194.61994845 508.36448677 -198.078125 508.37109375 C-200.48940079 508.38006374 -202.90067602 508.38918565 -205.31195068 508.39845276 C-210.36569571 508.41493445 -215.41937455 508.42264131 -220.47314453 508.42553711 C-226.93371514 508.43091762 -233.39365955 508.46858859 -239.8540535 508.51428127 C-244.83506515 508.544095 -249.81592685 508.55126163 -254.79701996 508.55226326 C-257.17795426 508.55645751 -259.55888934 508.56885963 -261.93973541 508.58978081 C-265.27831928 508.61678105 -268.61546252 508.61184276 -271.95410156 508.59936523 C-273.41487877 508.62161667 -273.41487877 508.62161667 -274.90516663 508.64431763 C-282.56462079 508.56322604 -289.15453098 506.49311174 -294.91534805 501.26015377 C-301.59735854 494.08208284 -302.34999543 487.56892922 -302.59375 478.01171875 C-301.63993818 467.31435488 -293.58982846 459.85659957 -286.36328125 452.734375 C-285.31740862 451.6876713 -284.27235466 450.64014902 -283.22807312 449.59185791 C-281.04801884 447.40896255 -278.85954473 445.23500515 -276.66430664 443.06738281 C-273.87309193 440.3102259 -271.1023707 437.53350183 -268.33752155 434.74993515 C-266.18547038 432.58723466 -264.02365486 430.43450811 -261.85881615 428.28461456 C-260.83435312 427.26527724 -259.81261982 426.24318778 -258.79387856 425.21813202 C-245.54974284 411.92276303 -232.63132835 406.06712548 -214 404 C-217.81440466 400.0942931 -221.62684416 396.25971142 -225.8125 392.75 C-268.61762797 355.71353186 -293.9477029 295.94085697 -301 241 C-301.08732895 240.3334288 -301.1746579 239.6668576 -301.26463318 238.98008728 C-301.96361654 233.2452815 -302.17548362 227.5865351 -302.203125 221.8125 C-302.20882507 220.86995361 -302.21452515 219.92740723 -302.22039795 218.95629883 C-302.22978344 216.97641094 -302.23635601 214.99650789 -302.24023438 213.01660156 C-302.2499735 210.00818577 -302.28107191 207.00044455 -302.3125 203.9921875 C-302.31902868 202.05729567 -302.32427968 200.12239902 -302.328125 198.1875 C-302.3404718 197.29973877 -302.3528186 196.41197754 -302.36553955 195.49731445 C-302.33371617 186.47143336 -300.20046025 179.35435603 -293.96875 172.7265625 C-288.14255769 167.61708432 -281.75471886 165.86349633 -274.140625 165.90234375 C-273.02558594 165.90556641 -271.91054688 165.90878906 -270.76171875 165.91210938 C-269.60285156 165.92048828 -268.44398438 165.92886719 -267.25 165.9375 C-266.07566406 165.94201172 -264.90132813 165.94652344 -263.69140625 165.95117188 C-260.79421928 165.96294906 -257.89713546 165.97939674 -255 166 C-254.8865625 164.87980469 -254.773125 163.75960937 -254.65625 162.60546875 C-248.71986096 115.63997417 -215.40999572 69.62159693 -178.98852539 40.98095703 C-176.35376691 38.94760664 -173.68270558 36.96984286 -171 35 C-169.72576172 34.04867187 -169.72576172 34.04867187 -168.42578125 33.078125 C-164.02844413 29.94250261 -160.58978405 27.89453238 -155 28 C-154.1234375 28.57621094 -153.246875 29.15242188 -152.34375 29.74609375 C-148.6222257 31.14166536 -148.18655597 31.04996535 -144.73046875 29.5703125 C-143.20274403 28.78061264 -141.68847929 27.96442235 -140.1875 27.125 C-139.41212891 26.74085937 -138.63675781 26.35671875 -137.83789062 25.9609375 C-135.65399695 24.78396593 -133.81790981 23.69020775 -132 22 C-131.1608958 18.47628743 -131.1608958 18.47628743 -131 15 C-123.34594832 4.44142752 -99.98827762 1.70642555 -88 -1 C-87.2069043 -1.18224121 -86.41380859 -1.36448242 -85.59667969 -1.55224609 C-58.6828505 -7.39423277 -26.71050131 -6.23951148 0 0 Z " fill="#34D9D9" transform="translate(302,4)"/>
<path d="M0 0 C0.90943359 0.20367188 1.81886719 0.40734375 2.75585938 0.6171875 C56.12481732 12.85465556 104.60693383 46.57597145 134.109375 92.80078125 C146.62816495 112.93085319 163.4178052 141.48703135 163 166 C164.06528931 165.97643433 164.06528931 165.97643433 165.15209961 165.95239258 C168.4138166 165.8894886 171.67540537 165.85083463 174.9375 165.8125 C176.05447266 165.78736328 177.17144531 165.76222656 178.32226562 165.73632812 C188.37755021 165.64786521 195.82072553 167.02391922 203.2734375 174.03125 C207.7930528 179.18483848 210.0948559 185.30052761 210.16113281 192.12817383 C210.17058929 192.93537872 210.18004578 193.74258362 210.18978882 194.57424927 C210.19418976 195.44306732 210.1985907 196.31188538 210.203125 197.20703125 C210.21018463 198.11597137 210.21724426 199.0249115 210.22451782 199.96139526 C210.4542542 238.30288627 210.4542542 238.30288627 207 255 C206.80132324 255.97775391 206.60264648 256.95550781 206.39794922 257.96289062 C199.08751802 292.89963297 185.91183624 326.87429622 165 356 C164.30519531 356.96808594 163.61039062 357.93617188 162.89453125 358.93359375 C152.30184755 373.35089245 140.43425332 388.16640477 126.62109375 399.6328125 C124.98755544 401.01049541 123.48986173 402.46938217 122 404 C123.13695312 404.13535156 124.27390625 404.27070313 125.4453125 404.41015625 C151.10303164 407.83230199 164.74784944 423.50766794 182.47900391 441.12890625 C184.41356171 443.05005461 186.35516992 444.96363221 188.30322266 446.87109375 C191.14092667 449.64974722 193.95777554 452.44900507 196.7734375 455.25 C198.07346207 456.51602051 198.07346207 456.51602051 199.39974976 457.80761719 C206.40666771 464.83924151 210.57345198 471.26310858 210.5625 481.4375 C210.32740103 489.25845899 208.60603628 494.97425879 203.35546875 500.8359375 C196.3535073 507.31630814 189.57506338 508.44646695 180.34228516 508.40405273 C178.76772804 508.41434761 178.76772804 508.41434761 177.16136169 508.42485046 C173.70378962 508.44309764 170.24667224 508.43928345 166.7890625 508.43359375 C164.37681939 508.43815682 161.96457758 508.44346276 159.55233765 508.44947815 C154.50033279 508.45840541 149.44848603 508.4559907 144.39648438 508.44604492 C137.9347843 508.43456116 131.47363118 508.45476031 125.01200294 508.48396206 C120.03102167 508.50234348 115.05017097 508.50202757 110.06916428 508.49632454 C107.68742481 508.49617154 105.30567637 508.50219843 102.92396927 508.51461601 C99.58780263 508.52955872 96.25263998 508.51882343 92.91650391 508.50170898 C91.9406282 508.51137695 90.9647525 508.52104492 89.95930481 508.53100586 C82.63115623 508.452622 76.76354135 506.77594135 70.81706142 502.38989162 C66.79475268 500.40535086 63.22559985 500.57837837 58.79679871 500.60559082 C57.86712117 500.59949972 56.93744363 500.59340861 55.97959405 500.58713293 C52.86281826 500.57047731 49.74644987 500.57528248 46.62963867 500.58007812 C44.39560013 500.57273923 42.16156538 500.56415353 39.92753601 500.55441284 C33.85720711 500.53216767 27.78701384 500.52926773 21.71664977 500.53116035 C16.64955636 500.53127993 11.58249182 500.52272082 6.51540643 500.51438284 C-6.12347884 500.49403665 -18.7622798 500.4930026 -31.4011692 500.50018996 C-42.36923832 500.50576321 -53.3370737 500.48494879 -64.3050882 500.45182949 C-75.57378428 500.41806711 -86.84237169 500.40340171 -98.11112994 500.40754652 C-104.43495004 500.40961483 -110.75853745 500.40412198 -117.08231544 500.37965393 C-123.03073047 500.3573994 -128.97865914 500.35925444 -134.92707634 500.37958145 C-137.10873924 500.38299389 -139.29043479 500.37789243 -141.47205353 500.36359787 C-144.45388502 500.34541032 -147.43406584 500.35815162 -150.41584778 500.37854004 C-151.27627066 500.36602219 -152.13669354 500.35350434 -153.02318984 500.34060717 C-158.49259206 500.4206114 -161.84426565 501.6237561 -166.30940574 504.80179447 C-171.82242374 508.70913571 -178.0677727 508.30202339 -184.52832031 508.30639648 C-185.57627274 508.31472 -186.62422516 508.32304352 -187.70393372 508.33161926 C-191.1620355 508.35567788 -194.61994845 508.36448677 -198.078125 508.37109375 C-200.48940079 508.38006374 -202.90067602 508.38918565 -205.31195068 508.39845276 C-210.36569571 508.41493445 -215.41937455 508.42264131 -220.47314453 508.42553711 C-226.93371514 508.43091762 -233.39365955 508.46858859 -239.8540535 508.51428127 C-244.83506515 508.544095 -249.81592685 508.55126163 -254.79701996 508.55226326 C-257.17795426 508.55645751 -259.55888934 508.56885963 -261.93973541 508.58978081 C-265.27831928 508.61678105 -268.61546252 508.61184276 -271.95410156 508.59936523 C-273.41487877 508.62161667 -273.41487877 508.62161667 -274.90516663 508.64431763 C-282.56462079 508.56322604 -289.15453098 506.49311174 -294.91534805 501.26015377 C-301.59735854 494.08208284 -302.34999543 487.56892922 -302.59375 478.01171875 C-301.63993818 467.31435488 -293.58982846 459.85659957 -286.36328125 452.734375 C-285.31740862 451.6876713 -284.27235466 450.64014902 -283.22807312 449.59185791 C-281.04801884 447.40896255 -278.85954473 445.23500515 -276.66430664 443.06738281 C-273.87309193 440.3102259 -271.1023707 437.53350183 -268.33752155 434.74993515 C-266.18547038 432.58723466 -264.02365486 430.43450811 -261.85881615 428.28461456 C-260.83435312 427.26527724 -259.81261982 426.24318778 -258.79387856 425.21813202 C-245.54974284 411.92276303 -232.63132835 406.06712548 -214 404 C-217.81440466 400.0942931 -221.62684416 396.25971142 -225.8125 392.75 C-268.61762797 355.71353186 -293.9477029 295.94085697 -301 241 C-301.08732895 240.3334288 -301.1746579 239.6668576 -301.26463318 238.98008728 C-301.96361654 233.2452815 -302.17548362 227.5865351 -302.203125 221.8125 C-302.20882507 220.86995361 -302.21452515 219.92740723 -302.22039795 218.95629883 C-302.22978344 216.97641094 -302.23635601 214.99650789 -302.24023438 213.01660156 C-302.2499735 210.00818577 -302.28107191 207.00044455 -302.3125 203.9921875 C-302.31902868 202.05729567 -302.32427968 200.12239902 -302.328125 198.1875 C-302.3404718 197.29973877 -302.3528186 196.41197754 -302.36553955 195.49731445 C-302.33371617 186.47143336 -300.20046025 179.35435603 -293.96875 172.7265625 C-288.14255769 167.61708432 -281.75471886 165.86349633 -274.140625 165.90234375 C-273.02558594 165.90556641 -271.91054688 165.90878906 -270.76171875 165.91210938 C-269.60285156 165.92048828 -268.44398438 165.92886719 -267.25 165.9375 C-266.07566406 165.94201172 -264.90132813 165.94652344 -263.69140625 165.95117188 C-260.79421928 165.96294906 -257.89713546 165.97939674 -255 166 C-254.8865625 164.87980469 -254.773125 163.75960937 -254.65625 162.60546875 C-248.71986096 115.63997417 -215.40999572 69.62159693 -178.98852539 40.98095703 C-176.35376691 38.94760664 -173.68270558 36.96984286 -171 35 C-169.72576172 34.04867187 -169.72576172 34.04867187 -168.42578125 33.078125 C-164.0356156 29.94761639 -160.58503084 27.89259556 -155 28 C-152.05244268 29.34562399 -150.45722728 30.08554544 -149 33 C-148.44089013 38.68428373 -148.44089013 38.68428373 -149 41 C-152.38456628 44.96226591 -156.41094979 47.83417031 -160.6875 50.75 C-166.05091419 54.49118163 -170.98478271 58.45689006 -175.7734375 62.92578125 C-177.79952496 64.81324168 -179.87896905 66.59620711 -182 68.375 C-210.32790757 93.24690285 -228.31599344 130.2933748 -237.125 166.375 C-237.28371582 167.00970215 -237.44243164 167.6444043 -237.60595703 168.29833984 C-240.75959836 181.71209293 -241.37296211 195.04429225 -241.3125 208.75 C-241.31100952 209.58727631 -241.30951904 210.42455261 -241.3079834 211.28720093 C-241.26905412 223.45012986 -240.73519393 235.11015914 -238 247 C-237.71633885 248.39795041 -237.43512869 249.79640018 -237.15625 251.1953125 C-232.29971677 274.5631746 -222.84792343 298.51032998 -209 318 C-208.24503456 319.11126031 -207.49120874 320.22329538 -206.73828125 321.3359375 C-201.82610281 328.49773711 -196.5266091 334.9882634 -190.54296875 341.28125 C-188.74289649 343.20575122 -187.05235855 345.1159305 -185.38671875 347.1484375 C-182.24103447 350.9067837 -178.76133291 353.8743032 -175 357 C-174.50806152 357.42023438 -174.01612305 357.84046875 -173.50927734 358.2734375 C-146.20064345 381.5470009 -113.29343855 396.69391823 -78 403 C-76.80890625 403.22429687 -75.6178125 403.44859375 -74.390625 403.6796875 C-46.68355081 408.02006608 -15.65328527 405.85657755 11 397 C11.80002441 396.73735352 12.60004883 396.47470703 13.42431641 396.20410156 C38.76105621 387.77869296 61.8584851 375.66799553 82 358 C83.28970703 356.87464844 83.28970703 356.87464844 84.60546875 355.7265625 C121.7728587 322.77634992 143.13568351 278.00768218 149 229 C149.1016748 228.21052979 149.20334961 227.42105957 149.30810547 226.60766602 C155.35436953 177.41306294 137.91343793 126.06496404 107.8125 87.5 C106.55620981 85.98779885 105.28547167 84.48747436 104 83 C103.30648438 82.19691406 102.61296875 81.39382812 101.8984375 80.56640625 C88.26024707 65.12103511 73.57022857 52.67419933 56 42 C54.90300781 41.32195313 53.80601562 40.64390625 52.67578125 39.9453125 C43.18641833 34.2803502 33.26852204 30.03583078 23 26 C22.36030273 25.74589355 21.72060547 25.49178711 21.06152344 25.22998047 C11.59011108 21.50814476 1.96603248 18.9553608 -8 17 C-9.16499023 16.77135254 -9.16499023 16.77135254 -10.35351562 16.53808594 C-44.87711642 10.06665793 -87.92802674 11.96401337 -120 28 C-122.8125 28.375 -122.8125 28.375 -126 28 C-128.8125 25.5625 -128.8125 25.5625 -131 23 C-131.33 22.67 -131.66 22.34 -132 22 C-131.65022224 15.82059298 -131.65022224 15.82059298 -129.375 12.94921875 C-118.97166831 4.41095803 -100.82230259 1.89471169 -88 -1 C-87.2069043 -1.18224121 -86.41380859 -1.36448242 -85.59667969 -1.55224609 C-58.6828505 -7.39423277 -26.71050131 -6.23951148 0 0 Z " fill="#373738" transform="translate(302,4)"/>
<path d="M0 0 C1.06589355 0.19287598 1.06589355 0.19287598 2.15332031 0.38964844 C21.31743371 3.93722101 39.98996459 11.59642836 57 21 C57.6914209 21.37737305 58.3828418 21.75474609 59.09521484 22.14355469 C74.39717976 30.56532578 87.39424458 40.97975781 100 53 C100.90234375 53.83789062 101.8046875 54.67578125 102.734375 55.5390625 C138.66338404 89.91045554 158.12761426 140.73067967 159.28271484 189.91503906 C159.40806869 201.58322176 158.21063688 212.9385757 156.39697266 224.45361328 C156.05251177 226.66316248 155.74456377 228.87336561 155.44921875 231.08984375 C149.57660563 269.16195465 128.61431038 304.13850774 102.33398438 331.60302734 C101.19641327 332.79431246 100.07321776 333.99929764 98.953125 335.20703125 C77.61811282 357.59055899 48.05092264 372.66262988 19 382 C17.15535156 382.61101562 17.15535156 382.61101562 15.2734375 383.234375 C-13.07954859 391.70768119 -45.0724047 393.05612442 -74 387 C-74.84820312 386.82839355 -75.69640625 386.65678711 -76.5703125 386.47998047 C-110.85258435 379.40736576 -141.61973196 363.96298671 -168 341 C-168.57395508 340.50048828 -169.14791016 340.00097656 -169.73925781 339.48632812 C-175.94222832 334.03928814 -181.8092734 328.4303031 -187 322 C-187.40041504 321.51192871 -187.80083008 321.02385742 -188.21337891 320.52099609 C-204.51003233 300.6068307 -217.04684087 278.52135815 -225 254 C-225.23944336 253.26797363 -225.47888672 252.53594727 -225.72558594 251.78173828 C-230.77705446 236.11237719 -234.10238488 220.02237955 -234.203125 203.51171875 C-234.21018463 202.73496292 -234.21724426 201.95820709 -234.22451782 201.15791321 C-234.45384042 168.52384175 -234.45384042 168.52384175 -231 154 C-230.68603271 152.67258789 -230.68603271 152.67258789 -230.36572266 151.31835938 C-225.95092818 133.18427082 -219.76468677 116.45804031 -211 100 C-210.68836914 99.40477539 -210.37673828 98.80955078 -210.05566406 98.19628906 C-195.28305606 70.16741483 -172.17934285 46.04045141 -145.70703125 28.86328125 C-142.93796119 27.27859221 -142.93796119 27.27859221 -142 25 C-141.93049459 23.45976004 -141.91547643 21.91665012 -141.9375 20.375 C-141.94652344 19.55773437 -141.95554687 18.74046875 -141.96484375 17.8984375 C-141.97644531 17.27195312 -141.98804688 16.64546875 -142 16 C-139.79799468 14.67578036 -137.58938174 13.36573271 -135.375 12.0625 C-134.44880859 11.50272461 -134.44880859 11.50272461 -133.50390625 10.93164062 C-129.70873356 8.71446079 -126.49379749 7.21085267 -122 7 C-120.64567325 8.31200404 -119.31266518 9.64631404 -118 11 C-113.0794807 11.53406505 -109.68908799 10.27707943 -105.1875 8.375 C-72.44447716 -4.59732514 -34.39750097 -6.61770103 0 0 Z M-108 28 C-108.63292969 28.27005859 -109.26585937 28.54011719 -109.91796875 28.81835938 C-121.37735552 33.76226624 -131.79649982 39.82499357 -142 47 C-142.59345215 47.41556152 -143.1869043 47.83112305 -143.79833984 48.25927734 C-160.65849637 60.27616292 -175.53565891 75.79009545 -187 93 C-187.39832031 93.5966748 -187.79664063 94.19334961 -188.20703125 94.80810547 C-215.00017178 135.68108615 -222.9149706 184.3094347 -213.59423828 232.07958984 C-212.66304105 236.47371204 -211.40493683 240.73872863 -210 245 C-209.73590332 245.81259277 -209.47180664 246.62518555 -209.19970703 247.46240234 C-193.98092262 293.53939639 -162.38007381 331.60159472 -118.921875 353.59765625 C-108.84488302 358.58355834 -98.83662014 362.93236675 -88 366 C-87.04432129 366.27384521 -87.04432129 366.27384521 -86.06933594 366.55322266 C-69.98960109 371.09370908 -54.07359904 372.42012391 -37.4375 372.375 C-36.19151031 372.37318726 -36.19151031 372.37318726 -34.92034912 372.37133789 C14.80996404 372.17580742 57.22906405 350.92957085 92.5 316.75 C115.12935952 293.83378944 132.24850119 261.64765824 138 230 C138.14663086 229.21383301 138.29326172 228.42766602 138.44433594 227.61767578 C142.83079646 202.97331423 143.27376269 176.32209285 137 152 C136.78037598 151.14132324 136.56075195 150.28264648 136.33447266 149.39794922 C133.27923505 137.79323569 129.25331373 126.78339779 124 116 C123.67161133 115.31873047 123.34322266 114.63746094 123.00488281 113.93554688 C115.18511818 97.9098564 105.26016623 83.92168599 93 71 C91.94918468 69.75768095 90.9062691 68.50859186 89.875 67.25 C86.59361461 63.40660938 82.89984365 60.20322086 79 57 C78.49936035 56.5870166 77.9987207 56.1740332 77.48291016 55.74853516 C69.38467947 49.10659677 61.12554809 43.18661095 52 38 C51.05133057 37.45496826 51.05133057 37.45496826 50.08349609 36.89892578 C2.14313759 9.57932901 -57.29234084 6.09232201 -108 28 Z " fill="#E0ECFC" transform="translate(294,20)"/>
<path d="M0 0 C0.94101562 0.00322266 1.88203125 0.00644531 2.8515625 0.00976562 C3.83640625 0.01814453 4.82125 0.02652344 5.8359375 0.03515625 C6.82851563 0.03966797 7.82109375 0.04417969 8.84375 0.04882812 C11.2995391 0.0606348 13.75520854 0.07710225 16.2109375 0.09765625 C16.19522705 1.17321777 16.1795166 2.2487793 16.16333008 3.35693359 C15.52469518 43.18184627 15.52469518 43.18184627 23.2109375 82.09765625 C23.48566895 82.99162109 23.76040039 83.88558594 24.04345703 84.80664062 C33.87476162 116.42103185 48.25593751 144.93024429 71.2109375 169.09765625 C72.32133112 170.40489238 73.42593568 171.71707809 74.5234375 173.03515625 C87.2559221 187.57387704 103.41526522 199.67549348 120.2109375 209.09765625 C121.39888916 209.77030518 121.39888916 209.77030518 122.61083984 210.45654297 C143.22209188 222.00539341 165.00593795 230.4742429 188.2109375 235.09765625 C189.01370117 235.25991699 189.81646484 235.42217773 190.64355469 235.58935547 C203.05939522 237.9717217 215.42141882 238.37982789 228.0234375 238.41015625 C228.75080109 238.41383209 229.47816467 238.41750793 230.22756958 238.42129517 C274.04180732 238.53698163 317.92293818 224.12189967 353.2109375 198.09765625 C353.84032227 197.63504395 354.46970703 197.17243164 355.11816406 196.69580078 C393.82667563 167.92485696 419.6464177 128.2584156 433.2109375 82.09765625 C433.43217285 81.35757324 433.6534082 80.61749023 433.88134766 79.85498047 C435.21418955 75.31115192 436.28434964 70.73840072 437.2109375 66.09765625 C437.43305908 65.05689941 437.43305908 65.05689941 437.65966797 63.99511719 C441.92998399 43.11699514 440.48435372 21.28951658 440.2109375 0.09765625 C443.60631602 -0.04809702 447.00088652 -0.13655917 450.3984375 -0.21484375 C451.35814453 -0.25673828 452.31785156 -0.29863281 453.30664062 -0.34179688 C460.47825717 -0.46587329 460.47825717 -0.46587329 464.32421875 2.4921875 C468.76286888 8.62175197 467.5011056 16.16280443 467.5234375 23.47265625 C467.52605591 24.28021362 467.52867432 25.087771 467.53137207 25.9197998 C467.53857998 46.72080979 465.03621057 67.08733228 459.2109375 87.09765625 C458.78694306 88.65342331 458.36381636 90.20942703 457.94140625 91.765625 C451.14062484 116.20660929 440.16915744 140.53385088 425.2109375 161.09765625 C424.51613281 162.06445312 423.82132812 163.03125 423.10546875 164.02734375 C417.87309305 171.15819204 412.27408201 177.93600903 406.48925781 184.61962891 C405.3254413 185.96526397 404.17006204 187.31818459 403.015625 188.671875 C399.36005995 192.89369424 395.58078684 196.70383547 391.3125 200.3046875 C389.04895696 202.23585154 386.88809368 204.25726998 384.7109375 206.28515625 C367.63328199 221.59794766 347.94224432 233.42042384 327.2109375 243.09765625 C326.14746094 243.60554687 325.08398438 244.1134375 323.98828125 244.63671875 C306.94362357 252.38240766 288.57284159 257.59926928 270.2109375 261.09765625 C268.57125 261.41669922 268.57125 261.41669922 266.8984375 261.7421875 C208.50539851 272.3107193 144.14458452 258.1764416 95.41503906 224.52783203 C85.65543543 217.64162521 76.40946442 210.31440464 67.58984375 202.25390625 C65.43583241 200.30150189 63.24066024 198.41488266 61.0234375 196.53515625 C57.81298547 193.72680855 54.99281807 190.75699665 52.2421875 187.5 C50.68172259 185.65445015 49.10040528 183.8422325 47.4921875 182.0390625 C39.96271856 173.53371121 33.38315538 164.62870898 27.2109375 155.09765625 C26.82873047 154.515 26.44652344 153.93234375 26.05273438 153.33203125 C1.18359819 115.0853174 -10.83433917 70.67937854 -11.08422852 25.34741211 C-11.09588459 23.87661219 -11.11654416 22.40585881 -11.14575195 20.93530273 C-11.18844697 18.77169099 -11.20457838 16.60929291 -11.21484375 14.4453125 C-11.22942627 13.17695557 -11.24400879 11.90859863 -11.2590332 10.60180664 C-10.70482666 6.46958505 -9.38557539 4.31890313 -6.7890625 1.09765625 C-4.33631109 -0.12871945 -2.7384844 -0.01649689 0 0 Z " fill="#3B5F94" transform="translate(27.7890625,187.90234375)"/>
<path d="M0 0 C2.62662001 2.30860894 5.17056 4.68444874 7.70166016 7.09814453 C9.75466677 9.05536546 11.83368506 10.88480289 14.02587891 12.68017578 C17.85060215 15.93486816 21.03772923 19.61132618 24.21337891 23.49267578 C25.34066406 24.86359375 25.34066406 24.86359375 26.49072266 26.26220703 C51.43697502 57.59280834 66.430235 95.81496121 66.46337891 135.99267578 C66.46405365 136.72543732 66.46472839 137.45819885 66.46542358 138.21316528 C66.39465402 186.77497608 48.73471168 230.34083469 15.21337891 265.49267578 C14.44638672 266.32412109 13.67939453 267.15556641 12.88916016 268.01220703 C-7.80153602 289.7567587 -35.33485916 303.92647538 -63.78662109 312.49267578 C-64.75599609 312.79818359 -65.72537109 313.10369141 -66.72412109 313.41845703 C-80.73688095 317.58383534 -94.9503227 318.9809497 -109.50097656 318.82885742 C-111.91814395 318.8051117 -114.33420863 318.80835288 -116.75146484 318.81494141 C-166.17432442 318.72751003 -208.32164255 297.12575625 -243.28662109 263.24267578 C-263.04833413 243.23046216 -276.11202968 217.99894823 -284.78662109 191.49267578 C-285.01220703 190.80995605 -285.23779297 190.12723633 -285.47021484 189.42382812 C-299.20139631 146.76068834 -292.80470093 98.20426919 -272.95092773 58.68164062 C-267.96758113 48.98678196 -262.48028392 40.0861901 -255.78662109 31.49267578 C-255.12919922 30.61353516 -254.47177734 29.73439453 -253.79443359 28.82861328 C-230.15832711 -1.61322037 -197.51603325 -22.52636595 -160.78662109 -33.50732422 C-159.4234375 -33.93464844 -159.4234375 -33.93464844 -158.03271484 -34.37060547 C-105.11376386 -49.39126841 -41.9401596 -35.38378592 0 0 Z M-205.78662109 6.49267578 C-206.36782715 6.9003418 -206.9490332 7.30800781 -207.54785156 7.72802734 C-243.21493076 33.2461009 -266.54804042 72.32868152 -273.81787109 115.35986328 C-274.91259973 122.57216344 -275.13142705 129.6442319 -275.09912109 136.93017578 C-275.09493164 138.2340625 -275.09074219 139.53794922 -275.08642578 140.88134766 C-274.8987027 157.16932043 -273.11502948 173.03126025 -267.78662109 188.49267578 C-267.57666504 189.11271484 -267.36670898 189.73275391 -267.15039062 190.37158203 C-259.47870813 212.79050023 -247.95385004 233.13189302 -231.78662109 250.49267578 C-231.29403809 251.02376953 -230.80145508 251.55486328 -230.29394531 252.10205078 C-204.41422498 279.69797823 -165.67301296 300.10464873 -127.49658203 301.71704102 C-122.73912647 301.85786829 -117.98336591 301.87873005 -113.22412109 301.86767578 C-112.383461 301.86746429 -111.5428009 301.86725281 -110.67666626 301.86703491 C-97.94493681 301.8350681 -86.07970461 301.01035334 -73.78662109 297.49267578 C-72.34329729 297.12409117 -70.89927789 296.75822014 -69.45458984 296.39501953 C-42.80621443 289.41783683 -18.85482667 274.90269501 0.828125 255.83105469 C2.02264035 254.67696002 3.23549973 253.5419072 4.45166016 252.41064453 C32.01607788 226.17197035 48.45829137 184.92069757 49.45166016 147.28955078 C50.07378577 102.51872531 36.6946783 61.24543314 5.21337891 28.49267578 C4.52236084 27.75500977 4.52236084 27.75500977 3.81738281 27.00244141 C-15.12504693 6.82531021 -38.39708104 -7.20118773 -64.78662109 -15.50732422 C-66.03314453 -15.90435547 -67.27966797 -16.30138672 -68.56396484 -16.71044922 C-115.24328412 -30.29357361 -166.12293177 -21.35241491 -205.78662109 6.49267578 Z " fill="#383939" transform="translate(368.78662109375,73.50732421875)"/>
<path d="M0 0 C1.21262009 -0.00361794 1.21262009 -0.00361794 2.44973755 -0.00730896 C4.14899632 -0.00633564 5.84828885 0.00693424 7.54736328 0.03198242 C10.11993589 0.06623481 12.68905295 0.05262968 15.26171875 0.03320312 C31.56512653 0.03419229 39.70719871 4.12733965 51.2578125 15.62890625 C52.75670015 17.1033309 54.25590859 18.57742949 55.75537109 20.05126953 C59.97103877 24.20947503 64.16164597 28.39204794 68.34350586 32.58422852 C70.97459331 35.22074751 73.61107686 37.8517878 76.24804688 40.48242188 C77.92219634 42.15723093 79.59603622 43.83234952 81.26953125 45.5078125 C82.05792892 46.29418594 82.8463266 47.08055939 83.65861511 47.89076233 C84.38059586 48.61589523 85.1025766 49.34102814 85.84643555 50.08813477 C86.80141182 51.04430443 86.80141182 51.04430443 87.77568054 52.01979065 C89.83247518 54.25280393 90.23569177 55.38004805 90.5078125 58.44140625 C90.2248749 62.04886067 89.41215572 63.75644862 87.2578125 66.62890625 C84.19452914 68.67109516 83.56828052 68.88112102 80.11653137 68.90306091 C79.2741391 68.91303604 78.43174683 68.92301117 77.56382751 68.93328857 C76.18222191 68.93428558 76.18222191 68.93428558 74.77270508 68.93530273 C73.80000671 68.94362625 72.82730835 68.95194977 71.82513428 68.96052551 C68.60083032 68.98467237 65.37672862 68.99340464 62.15234375 69 C59.9113509 69.00896478 57.67035867 69.01808659 55.42936707 69.02735901 C50.72592717 69.0438657 46.02255859 69.05155183 41.3190918 69.05444336 C35.30101384 69.05982009 29.28360937 69.09746425 23.26572132 69.14318752 C18.63392208 69.17298111 14.00228429 69.18016747 9.37039757 69.18116951 C7.15248222 69.18536941 4.93456629 69.19779437 2.71674538 69.21868706 C-0.39270309 69.24563988 -3.50060052 69.24076299 -6.61010742 69.22827148 C-7.52105667 69.24310577 -8.43200592 69.25794006 -9.37055969 69.27322388 C-15.70979468 69.20095927 -19.78706091 67.59416367 -24.7421875 63.62890625 C-31.52095814 56.62417659 -30.42783821 45.57649348 -30.60717773 36.52587891 C-30.65544748 34.68057688 -30.73058633 32.83577896 -30.83276367 30.99267578 C-31.50132597 18.77532696 -31.50132597 18.77532696 -29.7421875 13.62890625 C-25.93291233 9.55651548 -21.80621003 7.7869584 -16.7421875 5.62890625 C-15.43725093 4.75855611 -14.1417249 3.87397169 -12.85473633 2.97729492 C-8.54620508 0.22306652 -5.03020173 -0.08792051 0 0 Z " fill="#2C4D76" transform="translate(404.7421875,426.37109375)"/>
<path d="M0 0 C1.69998884 -0.0279004 3.39978199 -0.07539041 5.09863281 -0.14355469 C18.39467548 -0.67373714 26.43668751 1.78695197 37.13598633 9.64526367 C38.24820557 10.22034668 39.3604248 10.79542969 40.50634766 11.38793945 C43.35826334 13.83606984 43.5443071 14.12756317 43.88061523 17.62841797 C43.90666932 19.24190701 43.89852163 20.85618404 43.86254883 22.46948242 C43.86404434 23.76073784 43.86404434 23.76073784 43.86557007 25.07807922 C43.86089303 26.89964016 43.84146061 28.72121448 43.80834961 30.54248047 C43.76143284 33.30645886 43.76719103 36.06653871 43.78051758 38.83081055 C43.76935291 40.60622384 43.75512615 42.38162103 43.73754883 44.15698242 C43.74028305 45.3809095 43.74028305 45.3809095 43.74307251 46.62956238 C43.57233946 53.67989954 41.77329917 60.00795083 36.69848633 65.08276367 C30.86625608 68.63900163 26.15994415 68.94676823 19.46801758 68.95166016 C18.49996185 68.95998367 17.53190613 68.96830719 16.53451538 68.97688293 C13.33913132 69.00095071 10.14395137 69.00974988 6.94848633 69.01635742 C4.72558532 69.02532408 2.50268492 69.03444593 0.27978516 69.04371643 C-4.37721219 69.06019872 -9.03413768 69.06790555 -13.69116211 69.07080078 C-19.66015456 69.07619292 -25.62847297 69.11391112 -31.59727478 69.15954494 C-36.18691483 69.1892715 -40.77639142 69.19652334 -45.36611938 69.19752693 C-47.5669769 69.20173565 -49.76783462 69.21419589 -51.96859741 69.23504448 C-55.04492034 69.26187513 -58.11966507 69.25715845 -61.19604492 69.24462891 C-62.10528717 69.2594632 -63.01452942 69.27429749 -63.95132446 69.2895813 C-68.49462939 69.23683947 -70.26479914 69.13282286 -73.90576172 66.17030334 C-74.55198486 65.33704025 -75.19820801 64.50377716 -75.86401367 63.64526367 C-76.19401367 63.31526367 -76.52401367 62.98526367 -76.86401367 62.64526367 C-77.41730122 59.25637743 -77.63343074 56.74933728 -75.60569763 53.83964539 C-75.04439651 53.22724503 -74.4830954 52.61484467 -73.90478516 51.98388672 C-72.94739944 50.93604507 -72.94739944 50.93604507 -71.97067261 49.86703491 C-68.26542042 45.9593199 -64.50955983 42.10752022 -60.71166992 38.28979492 C-59.85270615 37.42513107 -58.99374237 36.56046722 -58.10874939 35.66960144 C-56.30240835 33.85386813 -54.49465129 32.03954253 -52.68554688 30.2265625 C-49.93115011 27.46241652 -47.18761045 24.68777947 -44.4440918 21.9128418 C-42.67977844 20.1420011 -40.91482585 18.37179699 -39.14916992 16.60229492 C-37.93161766 15.36622246 -37.93161766 15.36622246 -36.68946838 14.10517883 C-25.33327343 2.7928106 -15.75160562 0.1846771 0 0 Z " fill="#2C4D76" transform="translate(93.864013671875,426.354736328125)"/>
<path d="M0 0 C4.228125 1.546875 8.45625 3.09375 12.8125 4.6875 C24.09805101 8.72801393 35.25115762 12.55583623 47 15 C48.04285156 15.22558594 49.08570313 15.45117188 50.16015625 15.68359375 C84.99836044 22.94973555 122.28962588 22.91434483 157 15 C157.8770459 14.80245117 158.7540918 14.60490234 159.65771484 14.40136719 C171.87936297 11.54166451 183.69265168 7.1090078 195.49316406 2.88208008 C198.31736099 1.88833023 201.159707 0.94676433 204 0 C204.33 12.54 204.66 25.08 205 38 C137.02 38 69.04 38 -1 38 C-0.67 25.46 -0.34 12.92 0 0 Z " fill="#2C4D76" transform="translate(154,448)"/>
<path d="M0 0 C2.75329021 1.79562405 4.52627461 3.05254922 6 6 C6.29087921 7.87199492 6.55823036 9.74768206 6.8125 11.625 C8.15530024 19.86939851 10.64934475 25.4238149 17 31 C18.1446875 32.0209375 18.1446875 32.0209375 19.3125 33.0625 C31.94109591 42.16683659 47.38029133 43.0037709 62.43554688 40.61328125 C70.85298287 38.74936717 78.19593264 35.16347792 85.3515625 30.35546875 C88.50330026 28.74241122 90.50260243 28.63438485 94 29 C97.69824535 31.05458075 98.7810498 32.3431494 100.125 36.375 C99.96776505 40.93481341 98.17908242 42.97589659 95 46 C92.65348625 47.55511878 90.48754763 48.86545369 88 50.125 C87.34644531 50.464104 86.69289063 50.80320801 86.01953125 51.15258789 C67.71585794 60.35531725 43.89814459 62.58539844 24.2578125 56.32421875 C9.21915636 50.2113837 -1.11877101 40.83205833 -8.3203125 26.34375 C-11.30964606 19.23624363 -12.32292036 11.63597416 -11 4 C-7.71645873 -0.30037986 -5.34063951 -0.74956344 0 0 Z " fill="#363939" transform="translate(131,205)"/>
<path d="M0 0 C9.21929672 7.67308343 16.15215978 18.47396636 17.34765625 30.49609375 C17.72707016 39.84524152 17.72707016 39.84524152 14.875 44.375 C11.44553149 46.31339525 9.86752888 46.80573518 6 46 C3.02479011 43.97144781 1.36601211 42.31717734 0.38671875 38.79296875 C0.07902611 37.09397024 -0.21182989 35.39186068 -0.48828125 33.6875 C-2.16426006 24.88541282 -5.99117453 17.61795911 -13.29296875 12.34375 C-26.09250806 4.24729723 -40.86270644 1.96126948 -55.734375 4.68359375 C-64.65998871 7.07367475 -72.82435104 10.81324671 -80.68359375 15.65234375 C-83.49033748 17.28527223 -84.80946788 17.63810642 -88 17 C-90.79215683 15.01446626 -92.57217502 13.45699837 -93.55859375 10.09765625 C-93.77210699 7.82744404 -93.64174019 6.1897216 -93 4 C-71.60175583 -21.67789301 -24.03083647 -18.82492992 0 0 Z " fill="#363A3A" transform="translate(375,176)"/>
<path d="M0 0 C2.9375 2 2.9375 2 5 5 C6.86834088 18.77901398 -2.24051051 33.95752517 -9.875 44.875 C-20.47368432 58.63469544 -34.46150252 69.95095716 -52 73 C-63.90464134 73.95799803 -75.49468399 74.31973341 -86 68 C-86.84949219 67.50757813 -87.69898438 67.01515625 -88.57421875 66.5078125 C-92.74496789 63.91536617 -96.55585667 61.35695115 -99 57 C-99.625 53.5 -99.625 53.5 -99 50 C-96.4375 47 -96.4375 47 -93 45 C-87.36501203 44.68694511 -84.279869 46.91942271 -80.1875 50.4296875 C-72.49529202 55.95159394 -64.05022217 55.92736844 -55 55 C-41.73811468 52.51924733 -30.78619166 43.78088076 -23 33 C-17.71781089 24.42642017 -14.19795121 15.60724285 -11.984375 5.79296875 C-9.90790673 -0.09859797 -5.83503108 -0.81895173 0 0 Z " fill="#363939" transform="translate(256,250)"/>
<path d="M0 0 C13.88209348 4.79724519 24.74127477 11.5195444 35 22 C35.81210937 22.77988281 36.62421875 23.55976563 37.4609375 24.36328125 C49.07742123 36.15817514 54.43332677 51.05764971 54.36352539 67.36889648 C54.12208736 79.10493066 50.30974532 88.76023876 43 98 C40.06614333 100.70638994 38.01589778 102.57060815 33.9375 102.5625 C30 102 30 102 27.5 99.9375 C25.57031124 96.15852619 25.27611357 94.19854128 26 90 C27.34958661 88.05811832 28.8420707 86.40632523 30.46875 84.69140625 C36.30861 78.24074456 36.41758238 70.01846348 36.33984375 61.76953125 C35.42450252 51.6166084 30.74250725 43.42242395 24 36 C23.42765625 35.32453125 22.8553125 34.6490625 22.265625 33.953125 C13.76741733 24.58330629 2.77355803 19.63770838 -9.31420898 16.72192383 C-13.60493271 15.6458247 -16.37179163 14.64622326 -19 11 C-19.78787658 7.91369726 -19.65072037 5.1109 -19 2 C-13.93457013 -4.29341287 -6.85261972 -2.28420657 0 0 Z " fill="#363939" transform="translate(312,210)"/>
<path d="M0 0 C2.11838707 3.02626724 2.27523917 4.88469321 2.21875 8.5 C1.57477354 11.2476329 0.7979425 12.53162991 -1.25 14.5 C-4.47265625 15.3359375 -4.47265625 15.3359375 -8.3125 15.875 C-17.59742962 17.43459111 -25.07766325 20.98196633 -30.94140625 28.5234375 C-39.70509868 41.76053711 -41.27198513 56.96549392 -38.5625 72.421875 C-36.1766119 81.36895536 -32.38839132 89.79241301 -27.25 97.5 C-26.76675761 101.20485832 -26.98662253 103.02592056 -28.8125 106.3125 C-32.01996843 109.19099731 -33.9649334 109.57517661 -38.25 109.5 C-49.84952021 101.75492255 -54.08652669 84.84568142 -56.85522461 71.90356445 C-59.70277316 54.56644912 -57.40840784 35.11543756 -47.25 20.5 C-37.26012214 7.49973668 -17.4643906 -8.06048797 0 0 Z " fill="#363939" transform="translate(262.25,78.5)"/>
<path d="M0 0 C5.36807267 1.09552503 8.31918254 4.51531433 11.2578125 8.90234375 C11.91866495 10.11294066 12.5614279 11.33355551 13.1875 12.5625 C13.69615601 13.54005249 13.69615601 13.54005249 14.21508789 14.53735352 C23.16086664 32.37943929 24.87769492 54.25796726 19.25 73.38671875 C14.33056554 88.0835292 5.84912276 99.36306234 -7.9375 106.625 C-11.55142387 108.15396779 -15.19532663 109.44924958 -18.9375 110.625 C-20.4225 111.12 -20.4225 111.12 -21.9375 111.625 C-26.98069762 112.22334548 -30.7064171 112.41289305 -35.0625 109.625 C-37.66503703 105.46094076 -37.63192504 103.48597528 -36.9375 98.625 C-34.86500765 95.93220251 -33.59771048 94.78666444 -30.2734375 93.97265625 C-28.80777344 93.83150391 -28.80777344 93.83150391 -27.3125 93.6875 C-18.79291809 92.50162413 -11.47961012 89.39869015 -5.9375 82.625 C3.63102996 69.84242535 5.36404556 56.27191828 4.0625 40.625 C2.2021801 30.20720856 -2.10829374 21.36880939 -7.9375 12.625 C-8.50811018 8.22315002 -8.44506062 6.32662792 -5.8125 2.6875 C-2.9375 0.625 -2.9375 0.625 0 0 Z " fill="#363939" transform="translate(284.9375,238.375)"/>
<path d="M0 0 C2.12890625 0.44921875 2.12890625 0.44921875 4.69140625 2.57421875 C6.37261295 5.93663216 6.48206079 7.72715582 6.12890625 11.44921875 C4.703125 13.9765625 4.703125 13.9765625 2.81640625 16.38671875 C-3.54322914 25.07650395 -4.73231565 31.74375213 -3.87109375 42.44921875 C-1.69069101 55.36810497 6.95401961 67.33097092 17.43359375 74.9375 C25.58033987 80.52416214 33.90350744 84.33156689 43.56640625 86.44921875 C47.40993402 87.52810374 48.99959211 88.0778047 51.12890625 91.44921875 C51.91735907 95.44076113 51.72930647 98.40504445 49.69140625 101.94921875 C43.95246968 105.30859625 37.67829134 103.52400959 31.56640625 102.01171875 C11.30912133 95.74680413 -6.26840416 81.30221219 -16.18359375 62.51171875 C-22.35434822 49.2286233 -24.59273422 34.17949772 -20.30859375 19.88671875 C-16.71465266 10.76757285 -10.773796 -0.51472831 0 0 Z " fill="#363939" transform="translate(167.87109375,114.55078125)"/>
<path d="M0 0 C0.93457031 0.31839844 1.86914062 0.63679688 2.83203125 0.96484375 C10.02209991 3.65094487 16.10543458 6.95377213 21 13 C22.42201615 17.19494763 22.51657925 18.86844545 20.6875 22.875 C18.48717047 25.64578533 17.5010229 25.91649618 14 26.5 C9.20789641 26.47017363 6.22821601 23.50826612 2.53125 20.7578125 C-4.61204226 15.79719288 -12.4838197 15.02828199 -21 16 C-36.13967436 19.6608229 -47.83536496 29.29001318 -56.3125 42.125 C-59.96138715 48.3192802 -62.01804269 54.58568934 -63.89453125 61.46875 C-65.41307289 66.31949787 -66.74240955 69.16160637 -71 72 C-74.82911623 72.5826916 -76.56108964 72.25213999 -79.9375 70.3125 C-83.29934004 64.91318115 -82.26956339 60.05781517 -81 54 C-76.62202639 39.86249054 -69.1843667 28.66061406 -59 18 C-58.44828125 17.37351562 -57.8965625 16.74703125 -57.328125 16.1015625 C-43.70089855 1.19256722 -19.49866544 -7.09380019 0 0 Z " fill="#363939" transform="translate(333,105)"/>
</svg>
